# xmcd
#
# Track frame offsets:
#	150
#	27831
#	53483
#	75225
#	99031
#	122543
#	162175
#
# Disc length: 2474 seconds
#
# Revision: 0
# Processed by: cddbd v1.5.2PL0 Copyright (c) Steve Scherf et al.
# Submitted via: EasyCDDAExtractor 9.0.0.1
#
DISCID=3a09a807
DTITLE=Magnum - Colston Hall Bristol 28-09-86 Disc 1
DYEAR=1985
DGENRE=Hard Rock
TTITLE0=Vigilante
TTITLE1=Back Street Kid
TTITLE2=On A Storyteller's Night
TTITLE3=Hold Back Your Love
TTITLE4=All England's Eyes
TTITLE5=How Far Jerusalem
TTITLE6=Need A Lot Of Love
EXTD=
EXTT0=
EXTT1=
EXTT2=
EXTT3=
EXTT4=
EXTT5=
EXTT6=
PLAYORDER=
